<svg xmlns="http://www.w3.org/2000/svg" viewBox="0 0 175.98 39.99"><defs><style>.cls-1{fill:#f8f5f2;}</style></defs><title>logo2</title><g id="Capa_2" data-name="Capa 2"><g id="Capa_1-2" data-name="Capa 1"><path class="cls-1" d="M5.13,21.14V39.58H0V.51H5.13V12.82L14.49.51H21L8.82,16.58l15.12,23H17.73L5.47,20.73Z"/><path class="cls-1" d="M61.58,5.86A19.14,19.14,0,0,1,67.52,20a19.14,19.14,0,0,1-5.94,14.13A19.66,19.66,0,0,1,47.25,40a19.66,19.66,0,0,1-14.34-5.86A19.15,19.15,0,0,1,27,20,19.15,19.15,0,0,1,32.91,5.86,19.66,19.66,0,0,1,47.25,0,19.66,19.66,0,0,1,61.58,5.86ZM47.25,5.1A14.7,14.7,0,0,0,36.56,9.46,14.25,14.25,0,0,0,32.14,20a14.28,14.28,0,0,0,4.43,10.54,14.64,14.64,0,0,0,10.68,4.37,14.62,14.62,0,0,0,10.68-4.37A14.27,14.27,0,0,0,62.35,20,14.25,14.25,0,0,0,57.93,9.46,14.69,14.69,0,0,0,47.25,5.1Z"/><path class="cls-1" d="M80.25.51,93.1,22.41,105.91.51h4.67V39.58h-5.12V11.35L93.1,32.45,80.7,11.35V39.58H75.57V.51Z"/><path class="cls-1" d="M127.25.51a8.08,8.08,0,0,1,5.89,2.41,7.79,7.79,0,0,1,2.45,5.8A4.09,4.09,0,0,1,132,13c1.72.24,3.67,1.45,5.85,3.61s3.29,5.16,3.29,9a13.73,13.73,0,0,1-4.09,9.92c-2.56,2.62-5.13,3.94-7.7,4v0H119.23V.51Zm-2.9,5.06v6.17h3.35a3.19,3.19,0,0,0,2-.85,2.76,2.76,0,0,0,.89-2.17,3,3,0,0,0-.93-2.26,3.22,3.22,0,0,0-2.36-.89Zm0,11.37V34.5h5v-.08q1.59-.09,3.94-2.51a8.65,8.65,0,0,0,2.6-6.28,8.31,8.31,0,0,0-2.59-6.13,8.53,8.53,0,0,0-6.23-2.56Z"/><path class="cls-1" d="M161.57.51,176,39.58h-5.45l-5.1-13.82h-10.5l-5.07,13.82h-5.47L158.8.51Zm2,20.19-3.4-9.15-3.36,9.15Z"/></g></g></svg>