<svg xmlns="http://www.w3.org/2000/svg" viewBox="0 0 127.3 28.93"><defs><style>.cls-1{fill:#61583c;}</style></defs><title>logo</title><g id="Capa_2" data-name="Capa 2"><g id="Capa_1-2" data-name="Capa 1"><path class="cls-1" d="M3.71,15.29V28.63H0V.37H3.71v8.9L10.48.37h4.69L6.38,12,17.32,28.63H12.83L4,15Z"/><path class="cls-1" d="M44.55,4.24a13.84,13.84,0,0,1,4.3,10.22,13.86,13.86,0,0,1-4.3,10.23,14.24,14.24,0,0,1-10.37,4.24,14.2,14.2,0,0,1-10.37-4.24,13.83,13.83,0,0,1-4.3-10.23,13.8,13.8,0,0,1,4.3-10.22A14.2,14.2,0,0,1,34.18,0,14.24,14.24,0,0,1,44.55,4.24ZM34.18,3.69a10.6,10.6,0,0,0-7.73,3.15,10.34,10.34,0,0,0-3.2,7.62,10.31,10.31,0,0,0,3.21,7.63,10.57,10.57,0,0,0,7.72,3.16,10.6,10.6,0,0,0,7.73-3.16,10.32,10.32,0,0,0,3.19-7.63,10.33,10.33,0,0,0-3.19-7.62A10.63,10.63,0,0,0,34.18,3.69Z"/><path class="cls-1" d="M58.05.37l9.3,15.84L76.61.37H80V28.63H76.29V8.21L67.35,23.47l-9-15.26V28.63h-3.7V.37Z"/><path class="cls-1" d="M92.05.37a5.86,5.86,0,0,1,4.26,1.74A5.64,5.64,0,0,1,98.09,6.3a3,3,0,0,1-2.58,3.13A8.27,8.27,0,0,1,99.74,12a8.72,8.72,0,0,1,2.38,6.5,9.9,9.9,0,0,1-3,7.17q-2.77,2.85-5.57,2.88v0H86.25V.37ZM90,4V8.49h2.42a2.32,2.32,0,0,0,1.42-.61,2,2,0,0,0,.64-1.58,2.16,2.16,0,0,0-.67-1.63A2.37,2.37,0,0,0,92.05,4Zm0,8.23V25h3.64V24.9a5.09,5.09,0,0,0,2.85-1.82,6.25,6.25,0,0,0,1.88-4.54,6,6,0,0,0-1.87-4.44,6.19,6.19,0,0,0-4.51-1.84Z"/><path class="cls-1" d="M116.88.37,127.3,28.63h-3.94l-3.69-10h-7.59l-3.68,10h-4L114.87.37ZM118.33,15l-2.46-6.63L113.44,15Z"/></g></g></svg>